<svg width="49" height="31" viewBox="0 0 49 31" fill="none" xmlns="http://www.w3.org/2000/svg">
<path d="M35.1312 22.4999L32.1312 19.9999C32.1312 19.9999 29.3042 25.3612 25.6812 25.3612C22.8978 25.3612 20.1111 23.1398 14.1311 17C8.15114 10.8602 3.13106 6.07499 6.6311 2.5C10.1312 -1.07499 -1.34039 -0.383172 0.131087 6.07499C1.60256 12.5331 20.5866 30.6749 25.6812 30.3479C30.7757 30.0209 35.1312 22.4999 35.1312 22.4999Z" fill="url(#paint0_linear_116_40)"/>
<path d="M43.1312 7C43.9574 9.27729 35.8441 15.8783 35.8441 15.8783L39.2835 18.3308C39.2835 18.3308 48.4335 11.6274 48.3517 7.57499C48.27 3.52258 45.5781 0.0190645 39.2835 0.0190645C32.9888 0.0190645 32.1312 4.9999 32.1312 4.9999C32.1312 4.9999 31.1312 0.288694 25.2168 0.0190645C19.3024 -0.250565 15.3665 5.25099 16.613 9.22165C17.8594 13.1923 26.1346 18.3308 26.1346 18.3308L28.8551 15.5981C28.8551 15.5981 20.9424 10.9173 21.1312 8.4999C21.32 6.08248 21.3024 4 25.2168 4C29.1312 4 32.1312 10.4999 32.1312 10.4999C32.1312 10.4999 35.4358 4.38679 39.2835 4.38679C43.1312 4.38679 42.305 4.72271 43.1312 7Z" fill="url(#paint1_linear_116_40)"/>
<defs>
<linearGradient id="paint0_linear_116_40" x1="25.6311" y1="-3.78883e-07" x2="26.3612" y2="30.348" gradientUnits="userSpaceOnUse">
<stop offset="0.0001" stop-color="#FEEABD"/>
<stop offset="0.0002" stop-color="#F1B4BC"/>
<stop offset="1" stop-color="#FFD3B7"/>
</linearGradient>
<linearGradient id="paint1_linear_116_40" x1="25.6311" y1="-3.78883e-07" x2="26.3612" y2="30.348" gradientUnits="userSpaceOnUse">
<stop offset="0.0001" stop-color="#FEEABD"/>
<stop offset="0.0002" stop-color="#F1B4BC"/>
<stop offset="1" stop-color="#FFD3B7"/>
</linearGradient>
</defs>
</svg>
